HIERARCHY
ROOT root
{
	OFFSET	0	13.1	24.9
	CHANNELS 6  Xposition Yposition Zposition Xrotation Yrotation Zrotation
	JOINT spine_1
	{
		OFFSET	0	9.99999	0
		CHANNELS 3  Xrotation Yrotation Zrotation
		JOINT spine_2
		{
			OFFSET	0	112	-10
			CHANNELS 3  Xrotation Yrotation Zrotation
			JOINT spine_3
			{
				OFFSET	0	206.5	19.3
				CHANNELS 3  Xrotation Yrotation Zrotation
				JOINT spine_4
				{
					OFFSET	0	110.4	14.6
					CHANNELS 3  Xrotation Yrotation Zrotation
					JOINT neck_1
					{
						OFFSET	0	71.8	-50.3
						CHANNELS 3  Xrotation Yrotation Zrotation
						JOINT neck_2
						{
							OFFSET	0	86.2	-25.8
							CHANNELS 3  Xrotation Yrotation Zrotation
							JOINT head_ee
							{
								OFFSET	0	179.8	-8.7
								CHANNELS 3  Xrotation Yrotation Zrotation
								End Site
								{
									OFFSET	1	0	0
								}
							}
						}
					}
					JOINT left_clavicle
					{
						OFFSET	-43.2	22.4	-70.8
						CHANNELS 3  Xrotation Yrotation Zrotation
						JOINT left_shoulder
						{
							OFFSET	-93.9	-5.79999	48.7
							CHANNELS 3  Xrotation Yrotation Zrotation
							JOINT left_elbow
							{
								OFFSET	-291.4	-30.8	15.2
								CHANNELS 3  Xrotation Yrotation Zrotation
								JOINT left_lowarm_twist
								{
									OFFSET	-110.7	-3.89999	13.6
									CHANNELS 3  Xrotation Yrotation Zrotation
									JOINT left_hand
									{
										OFFSET	-110.7	-3.89999	13.6
										CHANNELS 3  Xrotation Yrotation Zrotation
										JOINT left_ee
										{
											OFFSET	-80.8	-5.10001	12.1
											CHANNELS 3  Xrotation Yrotation Zrotation
											End Site
											{
												OFFSET	1	0	0
											}
										}
									}
								}
							}
						}
					}
					JOINT right_clavicle
					{
						OFFSET	43.2	22.4	-70.8
						CHANNELS 3  Xrotation Yrotation Zrotation
						JOINT right_shoulder
						{
							OFFSET	93.9	-5.79999	48.7
							CHANNELS 3  Xrotation Yrotation Zrotation
							JOINT right_elbow
							{
								OFFSET	291.4	-30.8	15.2
								CHANNELS 3  Xrotation Yrotation Zrotation
								JOINT right_lowarm_twist
								{
									OFFSET	110.7	-3.89999	13.6
									CHANNELS 3  Xrotation Yrotation Zrotation
									JOINT right_hand
									{
										OFFSET	110.7	-3.89999	13.6
										CHANNELS 3  Xrotation Yrotation Zrotation
										JOINT right_ee
										{
											OFFSET	80.8	-5.10001	12.1
											CHANNELS 3  Xrotation Yrotation Zrotation
											End Site
											{
												OFFSET	1	0	0
											}
										}
									}
								}
							}
						}
					}
				}
			}
		}
	}
	JOINT left_hip
	{
		OFFSET	-82.8	-127.5	0.300001
		CHANNELS 3  Xrotation Yrotation Zrotation
		JOINT left_knee
		{
			OFFSET	-28.2	-396.7	2.2
			CHANNELS 3  Xrotation Yrotation Zrotation
			JOINT left_ankle
			{
				OFFSET	-11.7	-411.3	35.4
				CHANNELS 3  Xrotation Yrotation Zrotation
				JOINT left_toes
				{
					OFFSET	0	-60	-88.6
					CHANNELS 3  Xrotation Yrotation Zrotation
					JOINT left_foot_ee
					{
						OFFSET	-22.5	-16.5	-42.2
						CHANNELS 3  Xrotation Yrotation Zrotation
						End Site
						{
							OFFSET	1	0	0
						}
					}
				}
			}
		}
	}
	JOINT right_hip
	{
		OFFSET	82.8	-127.5	0.300001
		CHANNELS 3  Xrotation Yrotation Zrotation
		JOINT right_knee
		{
			OFFSET	28.2	-396.7	2.2
			CHANNELS 3  Xrotation Yrotation Zrotation
			JOINT right_ankle
			{
				OFFSET	11.7	-411.3	35.4
				CHANNELS 3  Xrotation Yrotation Zrotation
				JOINT right_toes
				{
					OFFSET	0	-60	-88.6
					CHANNELS 3  Xrotation Yrotation Zrotation
					JOINT right_foot_ee
					{
						OFFSET	22.5	-16.5	-42.2
						CHANNELS 3  Xrotation Yrotation Zrotation
						End Site
						{
							OFFSET	1	0	0
						}
					}
				}
			}
		}
	}
}
MOTION
Frames: 14
Frame Time: 0.02
377.729 724.883 -617.942 171.536 -64.2375 160.171 -2.20952 1.60295 5.09566 -2.19598 1.2759 5.187 -2.06161 -0.0331515 5.3411 -2.10049 0.809597 5.27966 -10.9675 8.95472 6.7836 -10.907 12.4494 8.9142 -0.0 0.0 -0.0 -5.09893 24.9813 -3.8993 9.40452 -15.7521 70.6599 1.79562 -41.6491 0.68302 38.4455 -0.270886 -4.81276 0.627335 15.8663 10.3896 -0.0 0.0 -0.0 13.17 26.8322 -25.9691 -4.22546 11.6342 -67.1847 0.296061 8.3437 -0.0215952 10.8417 -0.254015 1.35958 3.61209 19.0491 -16.0721 0.0 0.0 0.0 -12.4864 27.2219 13.8444 -8.89533 0.262779 1.3385 21.8669 28.0534 -3.1712 -15.3077 0.0 0.0 -0.0 0.0 -0.0 4.00998 24.571 8.08828 -40.5957 0.505097 -6.08146 38.4115 12.6164 4.95219 -5.921 0.0 0.0 0.0 0.0 0.0 
384.941 730.353 -616.127 169.981 -64.6713 158.396 -2.38889 1.75391 5.17856 -2.3751 1.42131 5.27929 -2.22349 0.0703618 5.4663 -2.26396 0.93151 5.38704 -11.7819 8.8113 8.29021 -11.6553 11.3365 10.3921 -0.0 0.0 -0.0 -5.11162 25.4565 -3.79042 7.94355 -16.0608 70.6187 1.77728 -41.3573 0.670869 37.6964 -0.234897 -4.72399 0.756241 15.7319 11.1509 -0.0 0.0 -0.0 13.2673 26.8873 -26.1871 -3.42364 11.6395 -66.7788 0.303288 8.54439 -0.0226564 11.6568 -0.262642 1.46333 3.94251 19.929 -17.8839 0.0 0.0 0.0 -12.3214 27.6851 13.5034 -11.316 0.298046 1.70823 20.8653 26.6636 -3.01157 -14.6763 0.0 0.0 -0.0 0.0 -0.0 3.09843 22.9509 8.59499 -41.6522 0.575209 -6.228 37.8337 11.1668 4.86149 -4.66809 0.0 0.0 0.0 0.0 0.0 
390.65 733.7 -618.088 167.336 -66.9972 155.31 -2.53949 1.39587 5.36652 -2.52409 1.05208 5.44415 -2.40264 -0.347343 5.53372 -2.44496 0.529599 5.5193 -12.4164 7.19992 6.43468 -12.353 9.57651 8.22444 -0.0 0.0 -0.0 -4.23093 24.9663 -2.73834 5.97697 -15.8585 70.4675 1.65634 -39.3657 0.592532 37.4012 -0.22104 -4.68889 0.482972 15.1929 9.23506 -0.0 0.0 -0.0 13.3344 27.2983 -26.2898 -2.00973 11.7471 -66.6856 0.290505 8.18927 -0.0207964 12.9146 -0.273059 1.62365 4.2151 21.6633 -18.8149 0.0 0.0 0.0 -10.1046 29.2707 12.4524 -13.931 0.31856 2.1089 21.4238 26.5746 -3.08324 -13.5561 0.0 0.0 -0.0 0.0 -0.0 -0.211821 21.7235 10.0487 -37.8467 0.335489 -5.69446 37.2035 12.6766 4.84217 -4.3981 0.0 0.0 0.0 0.0 0.0 
395.471 737.399 -615.564 165.939 -67.962 153.761 -2.70625 1.2505 5.40424 -2.69046 0.904614 5.47258 -2.58208 -0.515279 5.5227 -2.62443 0.36202 5.53482 -12.3825 6.93332 5.58983 -12.3479 9.60402 7.3405 -0.0 0.0 -0.0 -3.99353 25.021 -2.40833 4.54015 -15.7194 69.7984 1.57145 -37.8963 0.539534 37.2076 -0.212044 -4.66582 0.479964 15.2858 9.25086 -0.0 0.0 -0.0 13.4426 27.5156 -26.5118 -1.12373 11.8444 -66.1387 0.28308 7.98268 -0.0197519 13.245 -0.275211 1.6658 4.40623 22.1628 -19.8505 0.0 0.0 0.0 -8.93738 30.0561 11.7877 -15.3889 0.322051 2.33255 21.5557 26.474 -3.09858 -13.3774 0.0 0.0 -0.0 0.0 -0.0 -1.81227 20.7998 10.6065 -36.9196 0.282514 -5.5622 36.8373 13.418 4.82819 -4.39994 0.0 0.0 0.0 0.0 0.0 
401.34 738.499 -617.263 164.631 -68.0885 152.437 -2.89213 1.31022 5.56952 -2.87539 0.953742 5.64129 -2.75716 -0.527992 5.69675 -2.80222 0.376819 5.7087 -14.4936 6.36284 5.12997 -14.4837 9.0671 6.90292 -0.0 0.0 -0.0 -3.7299 24.9374 -2.07528 3.89248 -15.5062 69.6318 1.42542 -35.2243 0.452525 37.1449 -0.209148 -4.65834 0.101048 15.156 6.83159 -0.0 0.0 -0.0 13.2073 27.4002 -25.9829 3.17642 13.0063 -64.634 0.221947 6.27439 -0.0121647 13.6818 -0.277683 1.72153 4.57174 22.7027 -20.6829 0.0 0.0 0.0 -6.09673 31.1008 10.5141 -17.0127 0.319241 2.58167 22.1584 26.4534 -3.17662 -11.0555 0.0 0.0 -0.0 0.0 -0.0 -3.29912 17.935 11.4531 -34.103 0.134829 -5.15549 36.3827 13.6056 4.79009 -4.77025 0.0 0.0 0.0 0.0 0.0 
407.347 737.01 -616.164 162.25 -68.6711 150.19 -3.0793 1.29235 5.69729 -3.06173 0.927815 5.76765 -2.94214 -0.604594 5.81029 -2.98907 0.31901 5.83286 -14.9949 6.13198 5.28253 -14.9775 8.59286 7.01124 -0.0 0.0 -0.0 -3.5039 25.1598 -1.72603 2.71799 -15.2611 69.2134 1.35405 -33.8502 0.412057 36.8087 -0.193762 -4.61821 0.30199 15.1288 8.07645 -0.0 0.0 -0.0 13.015 27.8432 -25.4821 5.19115 13.4389 -64.9811 0.267684 7.55369 -0.0176709 14.2791 -0.280376 1.79778 4.64988 23.2931 -20.8765 0.0 0.0 0.0 -4.29185 31.7691 9.63773 -18.0911 0.313474 2.74703 22.5146 26.4907 -3.22346 -11.9553 0.0 0.0 -0.0 0.0 -0.0 -4.4862 17.8331 11.6624 -34.5172 0.155286 -5.21574 36.0868 14.3182 4.78226 -4.30486 0.0 0.0 0.0 0.0 0.0 
413.529 735.767 -613.512 161.91 -68.596 149.702 -3.08513 1.33203 5.80394 -3.06691 0.960664 5.87659 -2.94111 -0.601045 5.92401 -2.98989 0.340382 5.94462 -13.7099 5.28636 2.22536 -13.7501 8.70809 3.75384 -0.0 0.0 -0.0 -3.3153 24.7753 -1.55613 1.70343 -14.8427 68.9844 1.18247 -30.3589 0.320825 35.8982 -0.153281 -4.50907 0.0952561 14.9998 6.73466 -0.0 0.0 -0.0 12.9899 27.8001 -25.43 6.91931 14.4513 -64.2623 0.262022 7.39571 -0.0169344 14.2489 -0.280259 1.79392 4.59895 22.7796 -20.8262 0.0 0.0 0.0 -2.2774 32.4784 8.65298 -19.8686 0.29718 3.01925 22.7483 27.1847 -3.26788 -12.0295 0.0 0.0 -0.0 0.0 -0.0 -8.04828 16.4124 12.6037 -29.1852 -0.0744103 -4.43008 37.3401 14.8602 4.91879 -4.59758 0.0 0.0 0.0 0.0 0.0 
415.272 742.258 -611.019 161.852 -68.8305 149.55 -3.21591 1.31852 5.90924 -3.19699 0.940519 5.98081 -3.07001 -0.661414 6.01794 -3.12039 0.295515 6.04686 -15.587 5.13108 2.76221 -15.6268 8.21494 4.35273 -0.0 0.0 -0.0 -3.34209 24.6952 -1.60871 0.524816 -14.7535 68.996 1.05308 -27.5488 0.25817 36.272 -0.169689 -4.55395 0.0464825 16.3733 6.96543 -0.0 0.0 -0.0 13.3138 27.7704 -26.1804 9.41152 15.4338 -64.0582 0.273498 7.71579 -0.0184433 14.7709 -0.281996 1.86057 4.66894 23.3393 -20.9808 0.0 0.0 0.0 -0.396481 32.7805 7.94419 -19.7502 0.298527 3.00114 22.8978 26.5011 -3.27306 -11.638 0.0 0.0 -0.0 0.0 -0.0 -6.85313 16.139 12.4636 -30.2806 -0.0332151 -4.59314 35.4967 14.8269 4.73977 -5.2477 0.0 0.0 0.0 0.0 0.0 
430.461 736.929 -609.375 160.631 -68.6242 148.283 -3.26385 1.56352 5.97313 -3.24479 1.18099 6.06008 -3.08914 -0.450944 6.15723 -3.14161 0.525246 6.15136 -14.6902 4.60456 0.607046 -14.7478 8.43604 2.0788 -0.0 0.0 -0.0 -3.23507 24.5425 -1.49677 -0.634566 -14.4936 69.0638 0.838013 -22.5445 0.167032 35.5859 -0.139796 -4.47148 -0.127404 18.0776 6.56237 -0.0 0.0 -0.0 13.7738 27.562 -27.2738 11.5937 16.4883 -64.0994 0.322924 9.08864 -0.0256662 15.1142 -0.282808 1.90441 4.6389 23.2254 -20.8407 0.0 0.0 0.0 3.09856 33.1669 6.44456 -20.4302 0.290276 3.10515 22.9961 26.7233 -3.29025 -11.9701 0.0 0.0 -0.0 0.0 -0.0 -9.78774 15.0391 13.0995 -27.6817 -0.125857 -4.20508 35.4883 15.502 4.75989 -5.68366 0.0 0.0 0.0 0.0 0.0 
439.342 731.535 -608.774 160.559 -68.6293 148.228 -3.31041 1.63101 6.02788 -3.29106 1.24488 6.11897 -3.12631 -0.408491 6.23053 -3.17997 0.578681 6.21708 -14.5309 4.19497 -0.815923 -14.5877 8.50402 0.587311 -0.0 0.0 -0.0 -3.40759 24.3628 -1.76669 -2.09768 -14.2066 68.8163 0.681408 -18.6522 0.111905 35.1086 -0.119586 -4.41392 -0.256923 19.28 6.25041 -0.0 0.0 -0.0 14.0314 27.4612 -27.8874 13.6551 17.4435 -63.7992 0.37304 10.47 -0.0341791 15.3822 -0.283259 1.93864 4.62253 23.2009 -20.7421 0.0 0.0 0.0 5.56979 33.3306 5.34134 -21.0843 0.281176 3.2051 23.0327 26.8557 -3.29771 -12.2144 0.0 0.0 -0.0 0.0 -0.0 -11.6849 14.2431 13.4928 -25.8204 -0.181331 -3.92483 35.5629 15.8828 4.77948 -5.95532 0.0 0.0 0.0 0.0 0.0 
459.609 729.297 -609.874 158.318 -68.9334 145.794 -3.28494 1.69138 6.04173 -3.26559 1.30425 6.13662 -3.09385 -0.351951 6.26333 -3.14798 0.63967 6.2406 -13.7804 4.54112 -0.969368 -13.8399 9.25236 0.494044 -0.0 0.0 -0.0 -3.49269 24.0591 -1.94657 -3.83942 -14.0376 69.3965 0.470961 -13.1324 0.054211 34.2913 -0.0860967 -4.31496 -0.492628 21.6658 5.79587 -0.0 0.0 -0.0 13.9343 27.0852 -27.711 14.9188 17.7475 -64.4267 0.442743 12.3706 -0.0479824 16.0936 -0.283679 2.0295 4.52046 23.4021 -19.922 0.0 0.0 0.0 7.90934 33.5276 4.2695 -21.2974 0.277963 3.23765 20.0995 27.5404 -2.9264 -12.8843 0.0 0.0 -0.0 0.0 -0.0 -15.1742 13.0795 14.467 -23.6468 -0.234543 -3.59553 37.2366 16.983 4.97955 -5.57491 0.0 0.0 0.0 0.0 0.0 
470.339 728.802 -606.813 156.688 -70.0938 144.045 -3.2791 1.54132 6.14338 -3.25884 1.14806 6.22855 -3.10176 -0.528695 6.31105 -3.15698 0.472608 6.31548 -12.7763 4.60905 -1.31715 -12.8277 9.59136 0.0997779 -0.0 0.0 -0.0 -3.59105 23.8693 -2.12153 -4.17678 -14.0037 69.6785 0.340706 -9.58004 0.0285501 33.103 -0.039931 -4.17025 -0.742289 22.5604 4.70118 -0.0 0.0 -0.0 13.8452 27.1215 -27.4986 16.2787 17.9732 -65.1278 0.516858 14.3615 -0.0651183 17.0009 -0.282579 2.14538 4.42864 23.6497 -19.1498 0.0 0.0 0.0 8.21949 32.9093 4.1117 -20.9851 0.282629 3.18995 21.4783 24.9415 -3.06072 -12.6287 0.0 0.0 -0.0 0.0 -0.0 -17.3626 12.1857 14.3987 -21.2779 -0.278263 -3.23466 37.1849 18.9481 5.04789 -5.78109 0.0 0.0 0.0 0.0 0.0 
480.019 724.025 -603.485 155.476 -70.5705 143.158 -3.2334 1.52568 6.15947 -3.21302 1.13143 6.24362 -3.05765 -0.543924 6.32164 -3.11307 0.459231 6.32833 -13.3657 4.61484 -2.08544 -13.4224 10.0818 -0.580519 -0.0 0.0 -0.0 -3.52927 23.5905 -2.09688 -5.33458 -13.7882 69.2948 0.24141 -6.81962 0.0143838 32.8076 -0.0289246 -4.13414 -0.998491 25.1232 4.30205 -0.0 0.0 -0.0 13.7136 26.6785 -27.2492 17.6091 18.2443 -65.5808 0.592338 16.3532 -0.0851112 18.0647 -0.278952 2.2812 4.44991 24.1944 -18.9782 0.0 0.0 0.0 10.785 33.8516 3.49437 -17.0053 0.31927 2.58054 20.6669 24.1075 -2.94178 -14.0889 0.0 0.0 -0.0 0.0 -0.0 -18.8426 9.98897 14.1084 -19.1598 -0.30469 -2.91076 37.8758 20.3798 5.17308 -5.71815 0.0 0.0 0.0 0.0 0.0 
486.47 717.56 -601.36 155.043 -71.3357 142.852 -3.07504 1.53387 6.21913 -3.05426 1.13583 6.30366 -2.8976 -0.537546 6.38227 -2.95408 0.475046 6.3872 -14.2384 4.95581 -2.23522 -14.3158 10.8141 -0.534115 -0.0 0.0 -0.0 -3.7044 23.3647 -2.38744 -6.01643 -13.6533 69.0381 0.197448 -5.58646 0.00963347 32.372 -0.0130313 -4.08078 -1.28488 28.4213 4.12728 -0.0 0.0 -0.0 13.4472 26.3579 -26.67 19.7262 18.5066 -66.108 0.685841 18.765 -0.113326 19.088 -0.273084 2.41177 4.44539 24.777 -18.6073 0.0 0.0 0.0 13.251 34.1679 3.46813 -13.9662 0.318711 2.1143 18.8249 23.5295 -2.69192 -15.4197 0.0 0.0 -0.0 0.0 -0.0 -19.8174 8.48953 13.6191 -17.0381 -0.319141 -2.58556 39.0156 21.5321 5.33194 -5.49768 0.0 0.0 0.0 0.0 0.0 
